<?xml version="1.0"?>
<svg width="512" height="512" xmlns="http://www.w3.org/2000/svg" xmlns:svg="http://www.w3.org/2000/svg" enable-background="new 0 0 512 512" version="1.1" xml:space="preserve">

 <g class="layer">
  <title>Layer 1</title>
  <g id="feed__x2C_">
   <g id="svg_1">
    <path d="m492.87,374.97c0,65.45 -53.09,118.48 -118.58,118.48l-237.14,0c-65.48,0 -118.55,-53.03 -118.55,-118.48l0,-236.96c0,-65.43 53.07,-118.48 118.55,-118.48l237.14,0c65.49,0 118.58,53.05 118.58,118.48l0,236.96z" fill="#FF8405" id="svg_2"/>
    <path d="m147.03,404.24c21.82,0 39.52,-17.61 39.52,-39.32c0,-21.73 -17.7,-39.32 -39.52,-39.32c-21.82,0 -39.5,17.59 -39.5,39.32c0,21.71 17.68,39.32 39.5,39.32z" fill="#FFFFFF" id="svg_3"/>
    <path d="m246.15,404.51l57.04,0c0,-107.8 -87.75,-195.48 -195.6,-195.48l0,56.77c37,0 71.8,14.39 97.96,40.57c26.16,26.17 40.6,61.04 40.6,98.14z" fill="#FFFFFF" id="svg_4"/>
    <path d="m346.92,404.59l57.03,0c0,-163.33 -132.93,-296.2 -296.27,-296.2l0,56.77c131.91,0 239.24,107.41 239.24,239.43z" fill="#FFFFFF" id="svg_5"/>
    <path d="m147.03,404.24c21.82,0 39.52,-17.61 39.52,-39.32c0,-21.73 -17.7,-39.32 -39.52,-39.32c-21.82,0 -39.5,17.59 -39.5,39.32c0,21.71 17.68,39.32 39.5,39.32z" fill="#FFFFFF" id="svg_6"/>
    <path d="m246.15,404.51l57.04,0c0,-107.8 -87.75,-195.48 -195.6,-195.48l0,56.77c37,0 71.8,14.39 97.96,40.57c26.16,26.17 40.6,61.04 40.6,98.14z" fill="#FFFFFF" id="svg_7"/>
    <path d="m346.92,404.59l57.03,0c0,-163.33 -132.93,-296.2 -296.27,-296.2l0,56.77c131.91,0 239.24,107.41 239.24,239.43z" fill="#FFFFFF" id="svg_8"/>
    <path d="m147.03,325.6c21.82,0 39.52,17.59 39.52,39.32c0,21.72 -17.7,39.32 -39.52,39.32c-21.82,0 -39.5,-17.6 -39.5,-39.32c0,-21.73 17.68,-39.32 39.5,-39.32m0,-9.88c-27.23,0 -49.38,22.07 -49.38,49.2s22.15,49.2 49.38,49.2c27.24,0 49.4,-22.07 49.4,-49.2s-22.16,-49.2 -49.4,-49.2l0,0z" fill="#804203" id="svg_9"/>
    <path d="m107.58,209.03c107.86,0 195.61,87.68 195.61,195.48l-57.04,0c0,-37.1 -14.44,-71.97 -40.6,-98.14c-26.16,-26.18 -60.96,-40.57 -97.96,-40.57l0,-56.77m-0.01,-9.87c-5.45,0 -9.87,4.42 -9.87,9.87l0,56.77c0,5.45 4.42,9.88 9.87,9.88c34.41,0 66.71,13.38 90.98,37.67c24.32,24.33 37.71,56.7 37.71,91.16c0,5.46 4.42,9.88 9.88,9.88l57.04,0c5.46,0 9.88,-4.42 9.88,-9.88c0,-113.23 -92.18,-205.35 -205.49,-205.35l0,0z" fill="#804203" id="svg_10"/>
    <path d="m107.68,108.39c163.34,0 296.27,132.87 296.27,296.2l-57.03,0c0,-132.02 -107.33,-239.43 -239.24,-239.43l0,-56.77m0,-9.88c-5.45,0 -9.87,4.42 -9.87,9.88l0,56.77c0,5.46 4.42,9.88 9.87,9.88c126.47,0 229.37,102.97 229.37,229.55c0,5.45 4.42,9.88 9.87,9.88l57.03,0c5.45,0 9.87,-4.43 9.87,-9.88c0,-168.77 -137.33,-306.08 -306.14,-306.08l0,0z" fill="#804203" id="svg_11"/>
    <path d="m364.04,478.06l-216.63,0c-62.44,0 -113.25,-50.82 -113.25,-113.28l0,-216.6c0,-62.46 50.81,-113.26 113.25,-113.26l216.63,0c62.46,0 113.27,50.81 113.27,113.26l0,216.6c0,62.46 -50.81,113.28 -113.27,113.28zm-216.63,-433.24c-56.98,0 -103.35,46.36 -103.35,103.36l0,216.6c0,57 46.37,103.38 103.35,103.38l216.63,0c57,0 103.37,-46.38 103.37,-103.38l0,-216.6c0,-56.99 -46.37,-103.36 -103.37,-103.36l-216.63,0z" fill="#804203" id="svg_12"/>
   </g>
  </g>
  <g id="Layer_1"/>
  <line fill="none" id="svg_17" stroke="#e81212" stroke-width="19" transform="matrix(1, 0, 0, 1, 0, 0)" x1="54" x2="457" y1="450.28" y2="58.28"/>
  <line fill="none" id="svg_18" stroke="#e81212" stroke-width="19" x1="62" x2="447" y1="56.28" y2="451.28"/>
 </g>
</svg>